<?xml version="1.0" encoding="UTF-8"?>
<svg id="Layer_1" xmlns="http://www.w3.org/2000/svg" xmlns:xlink="http://www.w3.org/1999/xlink" version="1.1" viewBox="0 0 1200 315">
  <!-- Generator: Adobe Illustrator 29.7.1, SVG Export Plug-In . SVG Version: 2.1.1 Build 8)  -->
  <defs>
    <style>
      .st0 {
        fill: url(#_무제_그라디언트_663);
      }

      .st1 {
        fill: url(#_무제_그라디언트_661);
      }

      .st2 {
        fill: url(#_무제_그라디언트_662);
      }

      .st3 {
        fill: url(#_무제_그라디언트_664);
      }

      .st4 {
        fill: url(#_무제_그라디언트_665);
      }

      .st5 {
        fill: url(#_무제_그라디언트_66);
      }
    </style>
    <linearGradient id="_무제_그라디언트_66" data-name="무제 그라디언트 66" x1="134.04" y1="273.67" x2="134.04" y2="42.8" gradientUnits="userSpaceOnUse">
      <stop offset="0" stop-color="#01c3a9"/>
      <stop offset="1" stop-color="#8cd915"/>
    </linearGradient>
    <linearGradient id="_무제_그라디언트_661" data-name="무제 그라디언트 66" x1="320.71" y1="277.95" x2="320.71" y2="104.47" xlink:href="#_무제_그라디언트_66"/>
    <linearGradient id="_무제_그라디언트_662" data-name="무제 그라디언트 66" x1="503.43" y1="277.96" x2="503.43" y2="108.76" xlink:href="#_무제_그라디언트_66"/>
    <linearGradient id="_무제_그라디언트_663" data-name="무제 그라디언트 66" x1="684.73" y1="273.65" x2="684.73" y2="104.45" xlink:href="#_무제_그라디언트_66"/>
    <linearGradient id="_무제_그라디언트_664" data-name="무제 그라디언트 66" x1="870.25" y1="277.96" x2="870.25" xlink:href="#_무제_그라디언트_66"/>
    <linearGradient id="_무제_그라디언트_665" data-name="무제 그라디언트 66" x1="1066.97" y1="273.68" x2="1066.97" xlink:href="#_무제_그라디언트_66"/>
  </defs>
  <path class="st5" d="M182.68,153.95h0c15.17-10.56,25.06-27.38,25.06-48.16,0-35.62-28.69-62.99-64.64-62.99h-58.35c-1.83,0-3.32,1.49-3.32,3.32v23c0,1.31-1.07,2.38-2.38,2.38h-24.97c-1.83,0-3.32,1.48-3.32,3.32v195.53c0,1.83,1.49,3.32,3.32,3.32h96.28c37.27,0,66.95-28.36,66.95-65.3,0-25.06-13.85-44.52-34.63-54.42ZM81.43,73.87c0-1.31,1.07-2.38,2.38-2.38h59.29c19.13,0,34.3,15.83,34.3,35.29s-15.17,35.29-34.3,35.29h-58.35c-1.83,0-3.32-1.49-3.32-3.32v-64.88ZM150.36,244.97h0s-65.61,0-65.61,0c-1.83,0-3.32-1.49-3.32-3.32v-68.23c0-1.83,1.49-3.32,3.32-3.32h65.61c20.45,0,36.61,16.49,36.61,37.27s-16.16,37.6-36.61,37.6Z"/>
  <path class="st1" d="M320.55,104.47c-48.15,0-86.74,37.93-86.74,86.74s38.59,86.74,86.74,86.74,87.07-37.93,87.07-86.74-38.92-86.74-87.07-86.74ZM320.55,249.91c-32.65,0-58.04-25.39-58.04-58.7s25.39-58.7,58.04-58.7,58.37,25.39,58.37,58.7-25.39,58.7-58.37,58.7Z"/>
  <path class="st2" d="M573.17,108.76h-22.06c-1.83,0-3.32,1.49-3.32,3.32v84.08c0,38.92-21.44,54.42-47.82,54.42s-40.89-15.17-40.89-42.21v-96.28c0-1.83-1.49-3.32-3.32-3.32h-22.06c-1.83,0-3.32,1.49-3.32,3.32v97.93c0,42.21,25.39,67.94,63.98,67.94,23.09,0,41.22-8.57,53.43-28.03v20.43c0,1.83,1.49,3.32,3.32,3.32h22.06c1.83,0,3.32-1.49,3.32-3.32V112.08c0-1.83-1.49-3.32-3.32-3.32Z"/>
  <path class="st0" d="M693.8,104.45v.02c-23.09,0-41.22,8.57-53.43,28.03v-20.43c0-1.83-1.49-3.32-3.32-3.32h-22.06c-1.83,0-3.32,1.49-3.32,3.32v158.26c0,1.83,1.49,3.32,3.32,3.32h22.06c1.83,0,3.32-1.49,3.32-3.32v-84.08c0-38.92,21.44-54.42,47.82-54.42s40.89,15.17,40.89,42.21v96.28c0,1.83,1.49,3.32,3.32,3.32h22.06c1.83,0,3.32-1.49,3.32-3.32v-97.93c0-42.21-25.39-67.94-63.98-67.94Z"/>
  <path class="st3" d="M954.17,42.8h-22.06c-1.83,0-3.32,1.49-3.32,3.32v91.01c-13.19-20.12-34.3-32.65-62.33-32.65-45.84,0-83.44,37.93-83.44,86.74s37.6,86.74,83.44,86.74c28.03,0,49.14-12.53,62.33-32.65v25.05c0,1.83,1.49,3.32,3.32,3.32h22.06c1.83,0,3.32-1.49,3.32-3.32V46.12c0-1.83-1.49-3.32-3.32-3.32ZM870.09,250.24c-32.98,0-58.37-25.39-58.37-59.03s25.39-59.03,58.37-59.03,58.7,25.39,58.7,59.03-25.39,59.03-58.7,59.03Z"/>
  <path class="st4" d="M1145.95,201.11h-.03s-21.4-.01-21.4-.01c-1.83,0-3.32-1.48-3.32-3.32V46.12c0-1.83-1.49-3.32-3.32-3.32h-27.35v154.99c0,1.83-1.49,3.32-3.32,3.32h-69.57l72.87-158.3h-29.51c-2.11,0-4.03,1.23-4.91,3.15l-70.71,153.61c-.47,1.01-.71,2.12-.71,3.24v23.68c0,1.83,1.49,3.32,3.32,3.32h99.24c1.83,0,3.32,1.48,3.32,3.32v37.23c0,1.83,1.49,3.32,3.32,3.32h24.04c1.83,0,3.32-1.49,3.32-3.32v-37.23c0-1.83,1.49-3.32,3.32-3.32h21.4c1.83,0,3.32-1.49,3.32-3.32v-22.06c0-1.83-1.49-3.32-3.32-3.32Z"/>
</svg>